<?xml version="1.0" encoding="utf-8"?>
<!-- Generator: Adobe Illustrator 25.0.0, SVG Export Plug-In . SVG Version: 6.00 Build 0)  -->
<svg version="1.1" id="Layer_1" xmlns="http://www.w3.org/2000/svg" xmlns:xlink="http://www.w3.org/1999/xlink" x="0px" y="0px"
	 viewBox="0 0 404.6 92" style="enable-background:new 0 0 404.6 92;" xml:space="preserve">
<style type="text/css">
	.st0{fill:#75C58F;}
	.st1{fill:#1AA2B7;}
	.st2{fill:#FDC270;}
	.st3{fill:#F37677;}
	.st4{fill:#588FCB;}
	.st5{opacity:0.1;fill:#010101;enable-background:new    ;}
	.st6{fill:#FFFFFF;}
</style>
<g>
	<g>
		<path class="st0" d="M84.4,16.4C76.1,8.1,64.6,3,51.9,3v26.7c5.3,0,10.1,2.2,13.6,5.6L84.4,16.4z"/>
		<path class="st1" d="M82.3,18.5L65.6,35.3c3.5,3.5,5.6,8.3,5.6,13.6c0,10.6-8.6,19.3-19.3,19.3V92c23.8,0,43-19.3,43-43
			C94.9,37.1,90.1,26.3,82.3,18.5z"/>
		<path class="st2" d="M51.9,29.7V0C38.4,0,26.2,5.5,17.3,14.3l21,21C41.8,31.8,46.6,29.7,51.9,29.7z"/>
		<path class="st3" d="M15.2,12.2C5.8,21.6,0,34.6,0,48.9h32.6c0-5.3,2.2-10.1,5.6-13.6L15.2,12.2z"/>
		<path class="st4" d="M32.6,48.9H11.9c0,22.1,17.9,40,40,40V68.2C41.3,68.2,32.6,59.6,32.6,48.9z"/>
		<path class="st5" d="M23.8,8.8c-2.3,1.6-4.5,3.5-6.5,5.5l21,21c0.8-0.8,1.7-1.5,2.6-2.2L23.8,8.8z"/>
		<path class="st5" d="M59.9,3.7c-2.6-0.5-5.3-0.7-8-0.7v26.7c1.1,0,2.3,0.1,3.3,0.3L59.9,3.7z"/>
		<path class="st5" d="M87.2,24.3c-1.4-2.1-3.1-4-4.8-5.7L65.6,35.3c0.8,0.8,1.5,1.7,2.2,2.6L87.2,24.3z"/>
		<path class="st5" d="M45,88.4c2.3,0.4,4.6,0.6,7,0.6V68.2c-1.1,0-2.3-0.1-3.3-0.3L45,88.4z"/>
	</g>
	<g>
		<g>
			<g>
				<path class="st6" d="M112.8,58.6c0.1,1.6,1,2.9,2.5,3.9s3.5,1.5,5.8,1.5c3,0,5.2-0.4,6.5-1.2s2-1.9,2-3.3c0-0.9-0.3-1.5-0.9-2.1
					c-0.6-0.5-1.5-1-2.7-1.4s-2.7-0.8-4.4-1.1c-1.7-0.3-3.8-0.8-6.1-1.3c-1-0.2-2.2-0.5-3.4-0.7c-1.2-0.3-2.5-0.7-3.7-1.2
					s-2.4-1.1-3.5-1.8s-2.1-1.7-3-2.7c-0.9-1.1-1.6-2.4-2.1-3.9S99,40,99,37.9c0-2.7,0.5-5.1,1.5-7.3s2.5-4,4.4-5.5
					c2-1.5,4.5-2.6,7.5-3.4s6.6-1.2,10.6-1.2c3.3,0,6.3,0.4,9,1.3s4.9,2.1,6.8,3.6c1.8,1.6,3.3,3.5,4.2,5.6c1,2.2,1.5,4.6,1.5,7.2
					l-16-0.2c-0.1-1.3-0.7-2.4-1.8-3.4c-1.1-0.9-2.7-1.4-4.8-1.4c-2.4,0-4.2,0.4-5.4,1.3c-1.2,0.9-1.7,1.9-1.7,3.1
					c0,0.7,0.2,1.3,0.6,1.7c0.4,0.5,1,0.9,1.8,1.2s1.9,0.6,3.2,0.8c1.3,0.2,2.9,0.5,4.7,0.7c2.8,0.5,5.5,1.1,8,1.7
					c2.5,0.7,4.8,1.6,6.7,2.8s3.5,2.7,4.6,4.6c1.1,1.9,1.7,4.3,1.7,7.2c0,3.2-0.6,6-1.9,8.3c-1.3,2.3-3,4.3-5.3,5.8s-5,2.7-8.1,3.4
					c-3.2,0.7-6.6,1.1-10.4,1.1c-4.1,0-7.6-0.5-10.6-1.6s-5.3-2.5-7.2-4.3c-1.9-1.8-3.3-3.8-4.2-6c-0.9-2.2-1.3-4.4-1.3-6.6
					L112.8,58.6z"/>
				<path class="st6" d="M160.1,7.3l11.4-0.1V22H187v13.6h-15.5v18.7c0,1.6,0.2,3,0.6,4.1c0.4,1.1,0.9,1.9,1.6,2.6
					c0.7,0.6,1.5,1.1,2.4,1.3s1.9,0.4,3,0.4h8.9l-0.1,13h-10.3c-3,0-5.8-0.3-8.5-0.8s-5-1.6-7-3.1s-3.6-3.7-4.7-6.4
					c-1.1-2.8-1.7-6.4-1.7-10.9V35.6h-8.5V23.5l8.1-3.1L160.1,7.3z"/>
				<path class="st6" d="M190.6,48.7c0-3.9,0.7-7.6,2.2-11s3.5-6.4,6.1-9s5.7-4.6,9.3-6.1s7.6-2.2,12-2.2s8.5,0.7,12.1,2.2
					s6.8,3.5,9.4,6.1c2.6,2.6,4.7,5.6,6.1,9c1.5,3.4,2.2,7.1,2.2,11c0,1.1,0,2-0.1,2.6s-0.2,1.2-0.3,1.8h-43.2
					c0.4,1.7,1.1,3.2,2.1,4.5c0.9,1.3,2,2.5,3.3,3.4c1.2,0.9,2.6,1.7,4.1,2.2s3,0.8,4.5,0.8c2.5,0,4.7-0.5,6.5-1.6s3.3-2.4,4.2-4.1
					h17.2c-0.8,2.3-2,4.6-3.6,6.9c-1.6,2.2-3.6,4.2-6,6s-5.1,3.2-8.2,4.2c-3.1,1.1-6.5,1.6-10.2,1.6c-4.3,0-8.3-0.7-12-2.2
					s-6.7-3.5-9.3-6.1s-4.6-5.6-6.1-9C191.3,56.2,190.6,52.5,190.6,48.7z M220.3,32.9c-3.3,0-6.1,0.8-8.4,2.5c-2.3,1.7-4,3.9-5,6.6
					h26.2c-1-2.7-2.6-4.9-4.7-6.6S223.5,32.9,220.3,32.9z"/>
				<path class="st6" d="M292,35.8l-6.7,0.1c-4.4,0-7.8,1.2-10.2,3.6c-2.4,2.4-3.7,6.1-3.7,11v24.8h-15.8V22h12.7l1.2,5
					c1.7-1.4,3.8-2.6,6.2-3.6c2.4-1,5.3-1.4,8.7-1.4h7.6V35.8z"/>
				<path class="st6" d="M324.5,63.3c1.7,0,3.3-0.2,4.7-0.7c1.4-0.4,2.6-1.2,3.5-2.2c1-1,1.7-2.4,2.3-4.1c0.5-1.7,0.8-3.9,0.8-6.4
					V22h15.9v28.4c0,4.9-0.7,9-2.1,12.4s-3.3,6.1-5.7,8.2c-2.4,2.1-5.3,3.6-8.6,4.6c-3.3,1-6.9,1.4-10.8,1.4s-7.5-0.5-10.8-1.4
					c-3.3-1-6.2-2.5-8.6-4.6s-4.3-4.8-5.7-8.2c-1.4-3.4-2.1-7.5-2.1-12.4V22h15.9v27.8c0,2.5,0.3,4.7,0.8,6.4s1.3,3.1,2.2,4.2
					c1,1,2.2,1.8,3.6,2.2C321.2,63.1,322.8,63.3,324.5,63.3z"/>
				<path class="st6" d="M371.3,58.6c0.1,1.6,1,2.9,2.5,3.9s3.5,1.5,5.8,1.5c3,0,5.2-0.4,6.5-1.2s2-1.9,2-3.3c0-0.9-0.3-1.5-0.9-2.1
					c-0.6-0.5-1.5-1-2.7-1.4s-2.7-0.8-4.4-1.1c-1.7-0.3-3.8-0.8-6.1-1.3c-1-0.2-2.2-0.5-3.4-0.7c-1.2-0.3-2.5-0.7-3.7-1.2
					s-2.4-1.1-3.5-1.8s-2.1-1.7-3-2.7c-0.9-1.1-1.6-2.4-2.1-3.9s-0.8-3.3-0.8-5.4c0-2.7,0.5-5.1,1.5-7.3s2.5-4,4.4-5.5
					c2-1.5,4.5-2.6,7.5-3.4s6.6-1.2,10.6-1.2c3.3,0,6.3,0.4,9,1.3s4.9,2.1,6.8,3.6c1.8,1.6,3.3,3.5,4.2,5.6c1,2.2,1.5,4.6,1.5,7.2
					L387,38c-0.1-1.3-0.7-2.4-1.8-3.4c-1.1-0.9-2.7-1.4-4.8-1.4c-2.4,0-4.2,0.4-5.4,1.3c-1.2,0.9-1.7,1.9-1.7,3.1
					c0,0.7,0.2,1.3,0.6,1.7c0.4,0.5,1,0.9,1.8,1.2s1.9,0.6,3.2,0.8c1.3,0.2,2.9,0.5,4.7,0.7c2.8,0.5,5.5,1.1,8,1.7
					c2.5,0.7,4.8,1.6,6.7,2.8c1.9,1.2,3.5,2.7,4.6,4.6c1.1,1.9,1.7,4.3,1.7,7.2c0,3.2-0.6,6-1.9,8.3s-3,4.3-5.3,5.8s-5,2.7-8.1,3.4
					c-3.2,0.7-6.6,1.1-10.4,1.1c-4.1,0-7.6-0.5-10.6-1.6c-2.9-1.1-5.3-2.5-7.2-4.3c-1.9-1.8-3.3-3.8-4.2-6c-0.9-2.2-1.3-4.4-1.3-6.6
					L371.3,58.6z"/>
			</g>
		</g>
	</g>
</g>
</svg>
